<?xml version="1.0" encoding="UTF-8" standalone="no"?>
<svg
   xmlns:dc="http://purl.org/dc/elements/1.1/"
   xmlns:cc="http://creativecommons.org/ns#"
   xmlns:rdf="http://www.w3.org/1999/02/22-rdf-syntax-ns#"
   xmlns:svg="http://www.w3.org/2000/svg"
   xmlns="http://www.w3.org/2000/svg"
   xmlns:sodipodi="http://sodipodi.sourceforge.net/DTD/sodipodi-0.dtd"
   xmlns:inkscape="http://www.inkscape.org/namespaces/inkscape"
   sodipodi:docname="Brush Paint.svg"
   inkscape:version="1.0 (4035a4fb49, 2020-05-01)"
   id="svg831"
   version="1.1"
   viewBox="0 0 22.577778 22.577778"
   height="64pt"
   width="64pt"
   inkscape:export-filename="D:\Project ++\Filled Line\png\Web Design.png"
   inkscape:export-xdpi="576"
   inkscape:export-ydpi="576">
  <defs
     id="defs825">
    <pattern
       y="0"
       x="0"
       height="6"
       width="6"
       patternUnits="userSpaceOnUse"
       id="EMFhbasepattern" />
    <pattern
       y="0"
       x="0"
       height="6"
       width="6"
       patternUnits="userSpaceOnUse"
       id="EMFhbasepattern-9" />
    <pattern
       y="0"
       x="0"
       height="6"
       width="6"
       patternUnits="userSpaceOnUse"
       id="EMFhbasepattern-0" />
    <pattern
       y="0"
       x="0"
       height="6"
       width="6"
       patternUnits="userSpaceOnUse"
       id="EMFhbasepattern-7" />
    <pattern
       y="0"
       x="0"
       height="6"
       width="6"
       patternUnits="userSpaceOnUse"
       id="EMFhbasepattern-2" />
    <pattern
       y="0"
       x="0"
       height="6"
       width="6"
       patternUnits="userSpaceOnUse"
       id="EMFhbasepattern-98" />
    <pattern
       y="0"
       x="0"
       height="6"
       width="6"
       patternUnits="userSpaceOnUse"
       id="EMFhbasepattern-6" />
    <pattern
       y="0"
       x="0"
       height="6"
       width="6"
       patternUnits="userSpaceOnUse"
       id="EMFhbasepattern-01" />
    <pattern
       y="0"
       x="0"
       height="6"
       width="6"
       patternUnits="userSpaceOnUse"
       id="EMFhbasepattern-07" />
    <pattern
       y="0"
       x="0"
       height="6"
       width="6"
       patternUnits="userSpaceOnUse"
       id="EMFhbasepattern-8" />
    <pattern
       y="0"
       x="0"
       height="6"
       width="6"
       patternUnits="userSpaceOnUse"
       id="EMFhbasepattern-4" />
    <pattern
       y="0"
       x="0"
       height="6"
       width="6"
       patternUnits="userSpaceOnUse"
       id="EMFhbasepattern-40" />
    <pattern
       y="0"
       x="0"
       height="6"
       width="6"
       patternUnits="userSpaceOnUse"
       id="EMFhbasepattern-08" />
    <pattern
       y="0"
       x="0"
       height="6"
       width="6"
       patternUnits="userSpaceOnUse"
       id="EMFhbasepattern-04" />
    <pattern
       y="0"
       x="0"
       height="6"
       width="6"
       patternUnits="userSpaceOnUse"
       id="EMFhbasepattern-014" />
    <pattern
       y="0"
       x="0"
       height="6"
       width="6"
       patternUnits="userSpaceOnUse"
       id="EMFhbasepattern-27" />
    <pattern
       y="0"
       x="0"
       height="6"
       width="6"
       patternUnits="userSpaceOnUse"
       id="EMFhbasepattern-09" />
    <pattern
       y="0"
       x="0"
       height="6"
       width="6"
       patternUnits="userSpaceOnUse"
       id="EMFhbasepattern-5" />
    <pattern
       y="0"
       x="0"
       height="6"
       width="6"
       patternUnits="userSpaceOnUse"
       id="EMFhbasepattern-018" />
  </defs>
  <sodipodi:namedview
     inkscape:document-rotation="0"
     inkscape:snap-global="true"
     inkscape:snap-nodes="false"
     inkscape:bbox-nodes="true"
     inkscape:snap-bbox="true"
     showguides="true"
     inkscape:snap-midpoints="true"
     inkscape:snap-smooth-nodes="true"
     inkscape:snap-intersection-paths="true"
     inkscape:object-paths="true"
     inkscape:showpageshadow="false"
     inkscape:pagecheckerboard="true"
     inkscape:window-maximized="1"
     inkscape:window-y="-8"
     inkscape:window-x="-8"
     inkscape:window-height="706"
     inkscape:window-width="1366"
     units="pt"
     showgrid="false"
     inkscape:current-layer="layer1"
     inkscape:document-units="pt"
     inkscape:cy="42.56527"
     inkscape:cx="42.682208"
     inkscape:zoom="4.2757863"
     inkscape:pageshadow="2"
     inkscape:pageopacity="0.0"
     borderopacity="1.0"
     bordercolor="#666666"
     pagecolor="#ffffff"
     id="base">
    <inkscape:grid
       id="grid1378"
       type="xygrid" />
    <sodipodi:guide
       inkscape:locked="false"
       id="guide1380"
       orientation="78.000048,0"
       position="0.97013831,21.607643" />
    <sodipodi:guide
       inkscape:locked="false"
       id="guide1382"
       orientation="0,78.000005"
       position="0.97013831,0.97013129" />
    <sodipodi:guide
       inkscape:locked="false"
       id="guide1384"
       orientation="-78.000048,0"
       position="21.607639,0.97013129" />
    <sodipodi:guide
       inkscape:locked="false"
       id="guide1386"
       orientation="0,-78.000005"
       position="21.607639,21.607643" />
  </sodipodi:namedview>
  <metadata
     id="metadata828">
    <rdf:RDF>
      <cc:Work
         rdf:about="">
        <dc:format>image/svg+xml</dc:format>
        <dc:type
           rdf:resource="http://purl.org/dc/dcmitype/StillImage" />
        <dc:title></dc:title>
      </cc:Work>
    </rdf:RDF>
  </metadata>
  <g
     transform="translate(0,-274.42223)"
     id="layer1"
     inkscape:groupmode="layer"
     inkscape:label="Icon">
    <g
       transform="matrix(1.2559221,0,0,1.2559221,0.65521022,-191.59103)"
       style="display:inline;stroke-width:0.796228"
       id="g1767">
      <g
         style="stroke-width:0.796228"
         id="g123274">
        <path
           id="path111303"
           d="m 15.429688,372.19727 c -0.390175,0.0759 -0.835368,0.26232 -1.326172,0.53515 -0.98161,0.54567 -2.145367,1.44798 -3.28711,2.58985 -0.9526311,0.95237 -1.7397956,1.92311 -2.2910154,2.7871 a 0.26460996,0.26460996 0 0 0 0.1289063,0.38868 c 0.8286384,0.31713 1.3717311,0.86514 1.6855471,1.69531 a 0.26460996,0.26460996 0 0 0 0.388672,0.13086 c 0.865918,-0.55152 1.839937,-1.33994 2.794922,-2.29492 1.141733,-1.14187 2.044208,-2.30746 2.589843,-3.28907 0.272818,-0.4908 0.457319,-0.93402 0.533203,-1.32421 0.07588,-0.39019 0.04446,-0.76403 -0.205078,-1.01368 -0.249587,-0.24958 -0.621544,-0.28096 -1.011718,-0.20507 z"
           style="color:#000000;clip-rule:evenodd;fill:#c14d0b;fill-rule:evenodd;stroke-width:0.796228;stroke-linecap:round;stroke-linejoin:round;stroke-miterlimit:1.5" />
        <path
           transform="matrix(0.26458334,0,0,0.26458334,0,280.06666)"
           d="m 34.072266,367.86914 c -0.676086,0.9177 -1.294925,1.81613 -1.84961,2.68555 a 1.0001006,1.0001006 0 0 0 0.486328,1.46875 c 3.131862,1.1986 5.185018,3.27055 6.371094,6.4082 a 1.0001006,1.0001006 0 0 0 1.46875,0.49414 c 0.864141,-0.55039 1.757658,-1.16364 2.669922,-1.83398 -1.689322,-4.3531 -4.799583,-7.50573 -9.146484,-9.22266 z"
           style="color:#000000;clip-rule:evenodd;fill:#9e3f0c;fill-opacity:1;fill-rule:evenodd;stroke-width:3.00937;stroke-linecap:round;stroke-linejoin:round;stroke-miterlimit:1.5"
           id="path108605" />
        <path
           d="m 15.787201,372.16054 c -0.0711,-2.7e-4 -0.143948,0.005 -0.218074,0.0145 0.07217,0.21043 0.06853,0.45751 0.01912,0.71159 -0.07588,0.39019 -0.260482,0.83366 -0.5333,1.32446 -0.545636,0.98161 -1.447774,2.14682 -2.589507,3.28869 -0.827927,0.82792 -1.670081,1.53069 -2.443778,2.06241 0.124789,0.18909 0.230601,0.3989 0.318327,0.63097 a 0.26460996,0.26460996 0 0 0 0.388606,0.13074 c 0.865919,-0.55152 1.840194,-1.33997 2.795179,-2.29495 1.141733,-1.14187 2.043871,-2.30708 2.589506,-3.28869 0.272818,-0.4908 0.457417,-0.93428 0.533301,-1.32447 0.07588,-0.39019 0.04438,-0.76424 -0.205156,-1.01389 -0.171591,-0.17159 -0.400799,-0.23996 -0.654223,-0.24133 z"
           style="color:#000000;clip-rule:evenodd;fill:#9e3f0c;fill-opacity:1;fill-rule:evenodd;stroke-width:0.796228;stroke-linecap:round;stroke-linejoin:round;stroke-miterlimit:1.5"
           id="path91698" />
        <path
           id="path111257"
           d="m 8.7441406,377.9668 c -0.4316694,-0.15229 -0.913553,-0.006 -1.1894531,0.35937 -0.5862482,0.77571 -1.7832031,2.35938 -1.7832031,2.35938 a 0.26460996,0.26460996 0 0 0 0.1816406,0.42187 c 0.1849695,0.0201 0.3666355,0.0701 0.5371094,0.14649 a 0.26460996,0.26460996 0 0 0 0.00391,0.002 c 0.409246,0.17563 0.7078618,0.43477 0.9199219,0.79492 a 0.26460996,0.26460996 0 0 0 0.00195,0.006 c 0.1621946,0.26227 0.2518487,0.5579 0.265625,0.85938 a 0.26460996,0.26460996 0 0 0 0.4238282,0.19921 c 0,0 1.6214198,-1.22701 2.4082035,-1.82812 0.362947,-0.27544 0.508399,-0.75609 0.355469,-1.18555 -0.362596,-1.03472 -1.0873309,-1.76804 -2.1230475,-2.13476 a 0.26460996,0.26460996 0 0 0 -0.00195,0 z"
           style="color:#000000;clip-rule:evenodd;fill:#f5f6e8;fill-rule:evenodd;stroke-width:0.796228;stroke-linecap:round;stroke-linejoin:round;stroke-miterlimit:1.5" />
        <path
           id="path111265"
           d="m 5.6171875,380.57227 c -0.5260072,0.0178 -1.5927703,0.15788 -2.4902344,0.80664 -0.7402418,0.53511 -1.3801508,1.57152 -1.7128906,2.14257 -0.093771,0.16019 -0.09521,0.3583 -0.00391,0.51954 0.091343,0.16244 0.2620895,0.26345 0.4472657,0.26562 0.090139,0.002 0.1049843,9.5e-4 0.1914062,0.002 -0.088002,0.18971 -0.1360696,0.32303 -0.3476562,0.67383 -0.3256681,0.53995 -0.78934318,1.10326 -1.1464844,1.24219 -0.0944186,0.0367 -0.18919229,0.0925 -0.25195312,0.19726 -0.0627608,0.10478 -0.0636728,0.24424 -0.0292969,0.3418 0.0687518,0.19512 0.20798998,0.30224 0.3828125,0.41992 0.34964502,0.23538 0.89004502,0.45497 1.53710942,0.59571 1.2941288,0.28147 3.0297833,0.23388 4.2246093,-0.96094 0.8999335,-0.9002 1.4163366,-2.2349 1.6992188,-3.16406 a 0.26460996,0.26460996 0 0 0 0,-0.002 c 0.1864686,-0.63159 0.093795,-1.31292 -0.2519531,-1.87304 -0.2666539,-0.45055 -0.6604283,-0.79521 -1.1582032,-1.00977 -5.924e-4,-2.6e-4 -0.00136,2.7e-4 -0.00195,0 -8.93e-4,-3.8e-4 -0.00106,-0.002 -0.00195,-0.002 a 0.26460996,0.26460996 0 0 0 -0.00391,0 c -0.3393832,-0.15043 -0.711283,-0.21843 -1.0820312,-0.19531 z"
           style="color:#000000;clip-rule:evenodd;fill:#fed883;fill-rule:evenodd;stroke-width:0.796228;stroke-linecap:round;stroke-linejoin:round;stroke-miterlimit:1.5" />
        <path
           sodipodi:nodetypes="ccccccccccccccccsscccssc"
           transform="matrix(0.26458334,0,0,0.26458334,0,280.06666)"
           d="m 16.970703,392.6428 c 0.530189,-0.15477 0.834505,-0.71006 0.679688,-1.24024 -0.117373,-0.40385 -0.474882,-0.6911 -0.894532,-0.71875 v -2.2e-4 c -0.116634,-0.007 -0.233638,0.006 -0.345703,0.0391 -3.989068,1.16881 -7.286073,1.60319 -11.2929685,1.68359 0.040835,0.19671 0.1111261,0.38864 0.2128906,0.56836 0.3452334,0.61395 0.9895746,0.9957 1.6894531,1.00391 0.3406829,0.008 0.3979755,0.004 0.7246094,0.008 3.2602354,-0.15667 6.2705474,-0.7074 9.2265624,-1.34375 z m -1.712891,5.79275 v 0.002 c -0.263448,0.002 -0.515422,0.10809 -0.701171,0.29492 -4.525774,4.52493 -11.9882816,3.12113 -11.9882816,3.1211 -0.026496,-0.006 -0.053211,-0.0102 -0.080078,-0.0137 l -1.1484374,-0.125 c -0.070711,0.0764 -0.13729,0.16097 -0.1953126,0.25782 -0.23720612,0.39602 -0.24125274,0.92228 -0.1113281,1.29101 0.059237,0.16812 0.1333862,0.31907 0.21875,0.45703 l 1.0136719,0.11133 c 0.8122804,0.15223 8.5653858,1.44341 13.7011718,-3.69141 0.387823,-0.39006 0.387823,-1.02009 0,-1.41015 -0.187663,-0.18874 -0.442826,-0.29488 -0.708985,-0.29492 z"
           style="color:#000000;clip-rule:evenodd;fill:#ec7523;fill-rule:evenodd;stroke-width:3.00937;stroke-linecap:round;stroke-linejoin:round;stroke-miterlimit:1.5"
           id="path115789" />
        <path
           transform="matrix(0.26458334,0,0,0.26458334,0,280.06666)"
           d="m 24.439453,376.81641 c -0.96954,1.28279 -2.625,3.47461 -2.625,3.47461 A 1.0001006,1.0001006 0 0 0 22.5,381.88672 c 0.699097,0.076 1.384986,0.26402 2.029297,0.55273 a 1.0001006,1.0001006 0 0 0 0.01563,0.008 c 1.546756,0.66379 2.675075,1.64271 3.476562,3.0039 a 1.0001006,1.0001006 0 0 0 0.0078,0.0234 c 0.613019,0.99126 0.951838,2.10859 1.003906,3.24805 a 1.0001006,1.0001006 0 0 0 1.601563,0.7539 c 0,0 1.679438,-1.27314 3.699218,-2.80468 -0.186768,-1.52316 -0.698101,-3.00595 -1.521484,-4.33985 -1.23422,-2.08543 -3.057354,-3.68076 -5.361328,-4.67383 -0.0027,-0.001 -0.0051,10e-4 -0.0078,0 -0.0041,-0.002 -0.0056,-0.008 -0.0098,-0.008 a 1.2247595,1.2247595 0 0 0 -0.01758,0 c -0.948488,-0.42041 -1.952638,-0.70062 -2.976563,-0.83398 z"
           style="color:#000000;clip-rule:evenodd;fill:#dde3d0;fill-opacity:1;fill-rule:evenodd;stroke-width:3.00937;stroke-linecap:round;stroke-linejoin:round;stroke-miterlimit:1.5"
           id="path115692" />
        <path
           id="path115791"
           d="m 9.0429688,379.4668 -1.1269532,1.12695 a 0.2645835,0.2645835 0 0 0 0,0.37305 0.2645835,0.2645835 0 0 0 0.375,0 l 1.1269532,-1.12696 a 0.2645835,0.2645835 0 0 0 0,-0.37304 0.2645835,0.2645835 0 0 0 -0.375,0 z"
           style="color:#000000;clip-rule:evenodd;fill:#3a4d5c;fill-rule:evenodd;stroke-width:0.796228;stroke-linecap:round;stroke-linejoin:round;stroke-miterlimit:1.5" />
        <path
           id="path115793"
           d="m 9.4453125,380.30664 -0.9082031,0.9082 a 0.2645835,0.2645835 0 0 0 0,0.37305 0.2645835,0.2645835 0 0 0 0.375,0 l 0.90625,-0.90625 a 0.2645835,0.2645835 0 0 0 0,-0.375 0.2645835,0.2645835 0 0 0 -0.3730469,0 z"
           style="color:#000000;clip-rule:evenodd;fill:#3a4d5c;fill-rule:evenodd;stroke-width:0.796228;stroke-linecap:round;stroke-linejoin:round;stroke-miterlimit:1.5" />
        <path
           id="path115795"
           d="m 8.2148438,379.07617 -0.9082032,0.9082 a 0.2645835,0.2645835 0 0 0 0,0.375 0.2645835,0.2645835 0 0 0 0.375,0 l 0.9082032,-0.9082 a 0.2645835,0.2645835 0 0 0 0,-0.375 0.2645835,0.2645835 0 0 0 -0.375,0 z"
           style="color:#000000;clip-rule:evenodd;fill:#3a4d5c;fill-rule:evenodd;stroke-width:0.796228;stroke-linecap:round;stroke-linejoin:round;stroke-miterlimit:1.5" />
        <path
           d="m 5.7561391,380.56802 c -0.046314,6e-5 -0.092666,0.001 -0.1390094,0.004 -0.5199968,0.0176 -1.5683392,0.15506 -2.4592816,0.78497 0.5605831,-0.18847 1.0808545,-0.24497 1.4009482,-0.2558 0.3707479,-0.0231 0.7427214,0.0449 1.0821043,0.19533 a 0.26460996,0.26460996 0 0 1 0.00414,0 c 8.996e-4,0 6.614e-4,0.002 0.00156,0.002 5.027e-4,2.6e-4 0.00148,-2.6e-4 0.00206,0 0.4977749,0.21456 0.8914148,0.55921 1.1580688,1.00976 0.3457535,0.56012 0.4386505,1.24168 0.2521815,1.87327 a 0.26460996,0.26460996 0 0 0 0,5.3e-4 0.26460996,0.26460996 0 0 0 0,5.3e-4 0.26460996,0.26460996 0 0 0 0,5.2e-4 c -0.2828824,0.92916 -0.7991885,2.26395 -1.6991216,3.16415 -0.1347949,0.1348 -0.2765957,0.25497 -0.4237467,0.36174 0.5343047,-0.17004 1.0445737,-0.4534 1.48208,-0.89091 0.8999333,-0.9002 1.4162393,-2.23498 1.6991213,-3.16414 a 0.26460996,0.26460996 0 0 0 0,-5.3e-4 0.26460996,0.26460996 0 0 0 0,-5.3e-4 0.26460996,0.26460996 0 0 0 0,-5.3e-4 c 0.186469,-0.63159 0.09357,-1.31315 -0.252181,-1.87327 -0.266654,-0.45055 -0.660294,-0.7952 -1.158069,-1.00976 -5.821e-4,-2.6e-4 -0.00156,2.7e-4 -0.00206,0 -8.996e-4,-2.6e-4 -6.615e-4,-0.002 -0.00156,-0.002 a 0.26460996,0.26460996 0 0 0 -0.00414,0 c -0.29696,-0.13149 -0.6188984,-0.19975 -0.9430948,-0.19933 z"
           style="color:#000000;clip-rule:evenodd;fill:#ec7523;fill-opacity:1;fill-rule:evenodd;stroke-width:0.796228;stroke-linecap:round;stroke-linejoin:round;stroke-miterlimit:1.5"
           id="path113152" />
      </g>
      <path
         sodipodi:nodetypes="cscccccsccccscsssscccccccccsscccssccccscccccccccccccccccccccccccccscscccccsscccsccscccsccscccscc"
         d="m 15.429549,372.19747 c -0.390174,0.0759 -0.835213,0.26202 -1.326017,0.53485 -0.98161,0.54567 -2.145395,1.44816 -3.287138,2.59003 -0.8895411,0.88929 -1.6345536,1.79433 -2.1781612,2.61379 -0.4026107,-0.0959 -0.8301205,0.0544 -1.0836551,0.39016 -0.5575811,0.73778 -1.5882784,2.10192 -1.6955037,2.24379 -0.080517,-0.004 -0.1610897,-0.003 -0.2418456,0.002 -0.5260073,0.0178 -1.5928232,0.1579 -2.4902875,0.80667 -0.7402417,0.5351 -1.3803339,1.57145 -1.7130737,2.1425 -0.093771,0.16019 -0.094917,0.35863 -0.00362,0.51987 0.091343,0.16244 0.261825,0.26344 0.4470012,0.26561 0.090139,0.002 0.1052977,0.001 0.1917196,0.002 -0.088002,0.18971 -0.1361958,0.32254 -0.3477824,0.67334 -0.3256681,0.53995 -0.78955887,1.10337 -1.1467001,1.2423 -0.0944186,0.0367 -0.1889034,0.0926 -0.25166424,0.19741 -0.0627608,0.10478 -0.0638315,0.24402 -0.0294556,0.34158 0.0687518,0.19512 0.20809985,0.30245 0.38292239,0.42013 0.34964505,0.23538 0.88979275,0.45509 1.53685715,0.59583 1.2941289,0.28147 3.0302393,0.23364 4.2250651,-0.96118 0.8999337,-0.9002 1.416239,-2.23499 1.6991214,-3.16415 v -5.3e-4 -5.3e-4 -5.3e-4 c 0.059753,-0.20239 0.090251,-0.41004 0.093534,-0.61701 0.1695048,-0.1283 1.5615854,-1.182 2.3027013,-1.74822 0.332206,-0.25211 0.482334,-0.67605 0.38809,-1.07539 0.821582,-0.54404 1.729585,-1.29085 2.621546,-2.18281 1.141733,-1.14187 2.044388,-2.30708 2.590023,-3.28869 0.272818,-0.4908 0.457417,-0.93427 0.533301,-1.32446 0.07588,-0.39019 0.04438,-0.76425 -0.205156,-1.01389 -0.265119,-0.26512 -0.636346,-0.27255 -1.011825,-0.20471 z m 0.638722,0.57981 c 0.07223,0.0723 0.117753,0.23438 0.05891,0.53692 -0.05884,0.30254 -0.221397,0.71017 -0.476974,1.16996 -0.511155,0.91957 -1.388819,2.05738 -2.501656,3.17034 -0.844435,0.84443 -1.688565,1.51046 -2.455664,2.0252 -0.332391,-0.67856 -0.8465838,-1.1975 -1.5239381,-1.53375 0.5142513,-0.76539 1.1781631,-1.60679 2.0205491,-2.44895 1.112828,-1.11295 2.252325,-1.99046 3.171899,-2.50166 0.459787,-0.25559 0.865366,-0.41968 1.167887,-0.47852 0.204186,-0.0542 0.427243,-0.0513 0.538986,0.0605 z m -5.697282,7.50212 c 0.07647,0.21474 0.0061,0.45071 -0.1757,0.58808 -6.88e-4,0 -0.0014,0 -0.0021,0 -0.6660359,0.50886 -1.7001045,1.29123 -2.0536218,1.55856 -0.09957,-0.38602 -0.2749153,-0.66465 -0.4976439,-0.96428 -0.3119126,-0.38435 -0.7474519,-0.62612 -1.1979019,-0.7897 0.2551031,-0.33751 1.0289932,-1.36074 1.5327231,-2.02726 0.1036971,-0.13731 0.2629136,-0.2114 0.427364,-0.20774 l -5.8e-6,-1.7e-4 c 0.054817,10e-4 0.1102635,0.0109 0.1643311,0.03 0.88303,0.40527 1.4902542,1.08892 1.8025192,1.81254 z m -1.9844213,-1.28079 c -0.064758,0.004 -0.1258144,0.0315 -0.1715659,0.0775 l -0.9084717,0.90848 c -0.1036434,0.10338 -0.1036434,0.27127 0,0.37465 0.1034388,0.10399 0.2717321,0.10399 0.3751709,0 l 0.9079551,-0.90796 c 0.1039905,-0.10344 0.1039905,-0.27173 0,-0.37517 -0.053466,-0.0537 -0.1274141,-0.082 -0.2030884,-0.0775 z m 0.8438761,0.39015 c -0.070422,1e-5 -0.1379333,0.0281 -0.1875856,0.078 l -1.1270628,1.12706 c -0.1026131,0.1032 -0.1026131,0.2699 0,0.3731 0.1034388,0.10399 0.2717321,0.10399 0.3751709,0 l 1.1270629,-1.12706 c 0.1026115,-0.1032 0.1026115,-0.2699 0,-0.3731 -0.049652,-0.0499 -0.1171639,-0.078 -0.1875854,-0.078 z m 0.3855062,0.8413 c -0.064256,0.004 -0.1248852,0.0311 -0.1705322,0.0765 l -0.9084718,0.90847 c -0.1026115,0.1032 -0.1026115,0.2699 0,0.3731 0.1034389,0.10399 0.2717322,0.10399 0.375171,0 l 0.9064046,-0.9064 c 0.1039887,-0.10344 0.1039887,-0.27173 0,-0.37517 -0.053523,-0.0532 -0.1272294,-0.0811 -0.2025716,-0.0765 z m -2.4784011,1.45733 c 0.4809339,0.51434 0.6169829,1.12331 0.4738727,1.81497 -0.2708272,0.88915 -0.7835636,2.15844 -1.5663127,2.94142 -1.0162027,1.0162 -2.5529319,1.07584 -3.7382732,0.81803 -0.3399878,-0.0739 -0.6498499,-0.17476 -0.9017537,-0.2806 0.7749312,0.002 1.9420986,-0.16614 2.8194662,-1.04334 0.1026131,-0.10321 0.1026131,-0.26991 0,-0.37311 -0.049652,-0.0499 -0.1171644,-0.078 -0.1875856,-0.078 -0.069704,5.3e-4 -0.1363721,0.0286 -0.1855182,0.078 -0.8337177,0.83356 -2.0432616,0.90621 -2.701644,0.87385 0.4082052,-0.29909 0.7427486,-0.74823 1.0045898,-1.18236 0.2373018,-0.39344 0.4140734,-0.75942 0.5038453,-0.95498 0.6731124,-0.0528 1.28435,-0.17124 1.839681,-0.34985 0.1384517,-0.0451 0.2144342,-0.1936 0.1700154,-0.33228 -0.044455,-0.1388 -0.1927963,-0.21551 -0.3317626,-0.17156 -0.5526852,0.17775 -1.1723468,0.29446 -1.8691366,0.33796 -0.023818,-2.3e-4 -0.3154174,-0.003 -0.5880778,-0.008 0.3211426,-0.54986 0.9773053,-1.54818 1.5585613,-1.96836 0.6945866,-0.5021 1.5775356,-0.66408 2.0682186,-0.70024 0.614974,-0.0454 1.1918101,0.13563 1.6318141,0.5787 z"
         style="color:#000000;clip-rule:evenodd;display:inline;fill:#000000;fill-rule:evenodd;stroke-width:0.796228;stroke-linecap:round;stroke-linejoin:round;stroke-miterlimit:1.5"
         id="path115785" />
    </g>
  </g>
</svg>
